<svg width="40" height="40" viewBox="0 0 40 40" fill="none" xmlns="http://www.w3.org/2000/svg">
<path d="M38.7442 13.0438C40.336 17.3193 40.4169 22.0107 38.9735 26.3386C37.5301 30.6665 34.6493 34.3702 30.8098 36.8343C26.9703 39.2985 22.4032 40.3747 17.8675 39.8841C13.3317 39.3936 9.10033 37.3658 5.87644 34.1377C2.25503 30.5282 0.154902 25.6679 0.00823189 20.557C-0.138438 15.4461 1.67951 10.4734 5.08797 6.66217C8.49642 2.85095 13.2361 0.491174 18.3316 0.0684554C23.4271 -0.354263 28.4908 1.19223 32.4807 4.38969L36.1999 0.668647C36.4065 0.462105 36.6517 0.298267 36.9215 0.186487C37.1914 0.0747069 37.4806 0.0171746 37.7727 0.0171746C38.0648 0.0171746 38.3541 0.0747069 38.6239 0.186487C38.8938 0.298267 39.139 0.462105 39.3455 0.668647C39.5521 0.875189 39.7159 1.12039 39.8277 1.39025C39.9395 1.66011 39.997 1.94935 39.997 2.24144C39.997 2.53354 39.9395 2.82277 39.8277 3.09263C39.7159 3.36249 39.5521 3.60769 39.3455 3.81424L21.5822 21.5776C21.3757 21.7841 21.1304 21.9479 20.8606 22.0597C20.5907 22.1715 20.3015 22.229 20.0094 22.229C19.7173 22.229 19.4281 22.1715 19.1582 22.0597C18.8883 21.9479 18.6431 21.7841 18.4366 21.5776C18.2301 21.371 18.0662 21.1258 17.9544 20.856C17.8427 20.5861 17.7851 20.2969 17.7851 20.0048C17.7851 19.7127 17.8427 19.4234 17.9544 19.1536C18.0662 18.8837 18.2301 18.6385 18.4366 18.432L22.8774 13.9911C21.6258 13.3932 20.2187 13.2008 18.8526 13.441C17.4864 13.6811 16.2292 14.3418 15.2566 15.3307C14.2839 16.3197 13.6443 17.5877 13.4269 18.9576C13.2095 20.3276 13.4252 21.7313 14.0439 22.9728C14.6626 24.2143 15.6535 25.2317 16.8782 25.883C18.1029 26.5343 19.5004 26.787 20.8757 26.6058C22.2509 26.4247 23.5353 25.8188 24.5496 24.8726C25.5639 23.9264 26.2576 22.6871 26.5337 21.3278C26.65 20.7504 26.9909 20.2429 27.4814 19.9169C27.9719 19.5909 28.5718 19.4731 29.1492 19.5894C29.7265 19.7057 30.2341 20.0466 30.5601 20.5371C30.8861 21.0276 31.0039 21.6275 30.8876 22.2048C30.4146 24.5347 29.2062 26.6512 27.4402 28.2429C25.6742 29.8346 23.444 30.8173 21.0776 31.0465C18.7113 31.2757 16.3338 30.7392 14.2952 29.5159C12.2567 28.2927 10.6646 26.4474 9.75329 24.2516C8.84202 22.0557 8.6597 19.6254 9.23316 17.3182C9.80663 15.0109 11.1056 12.9487 12.9389 11.4351C14.7721 9.9214 17.0429 9.0362 19.417 8.90976C21.791 8.78331 24.143 9.4223 26.1266 10.7327L29.3148 7.55563C26.32 5.31903 22.6195 4.23656 18.8915 4.50657C15.1635 4.77659 11.6576 6.38102 9.01636 9.02583C6.37513 11.6706 4.77545 15.1787 4.51049 18.9071C4.24553 22.6355 5.33303 26.3345 7.57369 29.3262C9.81435 32.318 13.0581 34.4021 16.7105 35.1966C20.3629 35.9911 24.1792 35.4428 27.4602 33.6522C30.7412 31.8616 33.267 28.9486 34.5748 25.4471C35.8826 21.9455 35.8848 18.09 34.5809 14.587C34.4771 14.3131 34.4285 14.0214 34.4379 13.7287C34.4473 13.4359 34.5146 13.1479 34.6358 12.8813C34.7569 12.6147 34.9297 12.3747 35.144 12.1751C35.3584 11.9755 35.6101 11.8203 35.8846 11.7184C36.1592 11.6165 36.4513 11.5699 36.7439 11.5813C37.0366 11.5928 37.3241 11.662 37.5899 11.785C37.8557 11.908 38.0945 12.0824 38.2926 12.2981C38.4907 12.5139 38.6442 12.7666 38.7442 13.0419V13.0438Z" fill="black"/>
</svg>
