<svg width="40" height="40" viewBox="0 0 40 40" fill="none" xmlns="http://www.w3.org/2000/svg">
<path d="M32.3775 27.6072C31.6263 27.6072 30.875 27.3067 30.274 26.7055L25.7666 22.1971C25.1656 21.596 24.8651 20.8446 24.8651 20.0932C24.8651 19.3418 25.1656 18.5904 25.7666 17.9892L30.274 13.4808C30.875 12.8797 31.6263 12.5791 32.3775 12.5791C33.1288 12.5791 33.88 12.8797 34.481 13.4808L38.9885 17.9892C39.5895 18.5904 39.89 19.3418 39.89 20.0932C39.89 20.8446 39.5895 21.596 38.9885 22.1971L34.481 26.7055C33.88 27.3067 33.1288 27.6072 32.3775 27.6072ZM32.3775 15.5847L27.8701 20.0932L32.3775 24.6016L36.885 20.0932L32.3775 15.5847ZM20.3576 15.5847C19.6063 15.5847 18.8551 15.2842 18.2541 14.6831L13.7466 10.1746C13.1456 9.57351 12.8451 8.8221 12.8451 8.07069C12.8451 7.31929 13.1456 6.56788 13.7466 5.96676L18.2541 1.45833C18.8551 0.857203 19.6063 0.556641 20.3576 0.556641C21.1088 0.556641 21.8601 0.857203 22.4611 1.45833L26.9686 5.96676C27.5696 6.56788 27.8701 7.31929 27.8701 8.07069C27.8701 8.8221 27.5696 9.57351 26.9686 10.1746L22.4611 14.6831C21.8601 15.2842 21.1088 15.5847 20.3576 15.5847ZM20.3576 3.56226L15.8501 8.07069L20.3576 12.5791L24.8651 8.07069L20.3576 3.56226ZM20.3576 39.6297C19.6063 39.6297 18.8551 39.3292 18.2541 38.728L13.7466 34.2196C13.1456 33.6185 12.8451 32.8671 12.8451 32.1157C12.8451 31.3643 13.1456 30.6129 13.7466 30.0117L18.2541 25.5033C18.8551 24.9022 19.6063 24.6016 20.3576 24.6016C21.1088 24.6016 21.8601 24.9022 22.4611 25.5033L26.9686 30.0117C27.5696 30.6129 27.8701 31.3643 27.8701 32.1157C27.8701 32.8671 27.5696 33.6185 26.9686 34.2196L22.4611 38.728C21.8601 39.3292 21.1088 39.6297 20.3576 39.6297ZM20.3576 27.6072L15.8501 32.1157L20.3576 36.6241L24.8651 32.1157L20.3576 27.6072ZM8.33766 27.6072C7.58641 27.6072 6.83516 27.3067 6.23417 26.7055L1.72669 22.1971C1.12569 21.596 0.825195 20.8446 0.825195 20.0932C0.825195 19.3418 1.12569 18.5904 1.72669 17.9892L6.23417 13.4808C6.83516 12.8797 7.58641 12.5791 8.33766 12.5791C9.0889 12.5791 9.84015 12.8797 10.4411 13.4808L14.9486 17.9892C15.5496 18.5904 15.8501 19.3418 15.8501 20.0932C15.8501 20.8446 15.5496 21.596 14.9486 22.1971L10.4411 26.7055C9.84015 27.3067 9.0889 27.6072 8.33766 27.6072ZM8.33766 15.5847L3.83018 20.0932L8.33766 24.6016L12.8451 20.0932L8.33766 15.5847Z" fill="#272465"/>
</svg>
