<svg width="45" height="37" viewBox="0 0 45 37" fill="none" xmlns="http://www.w3.org/2000/svg">
<path d="M18.9221 10.7437H26.9353M18.9221 10.7437V18.8233M18.9221 10.7437V2.66406H10.9088V10.7437M18.9221 10.7437H10.9088M26.9353 10.7437V18.8233M26.9353 10.7437H34.9486M26.9353 10.7437V2.66406H34.9486V10.7437M26.9353 18.8233H18.9221M26.9353 18.8233H34.9486M26.9353 18.8233V26.9029M18.9221 18.8233H10.9088M18.9221 18.8233V26.9029M18.9221 26.9029H26.9353M18.9221 26.9029V34.9825H26.9353V26.9029M18.9221 26.9029H10.9088V18.8233M26.9353 26.9029H34.9486V18.8233M34.9486 10.7437H42.9619V18.8233H34.9486M34.9486 10.7437V18.8233M10.9088 10.7437H2.89551V18.8233H10.9088M10.9088 10.7437V18.8233" stroke="#272465" stroke-width="4" stroke-linecap="round" stroke-linejoin="round"/>
</svg>
