<svg width="23" height="23" viewBox="0 0 23 23" fill="none" xmlns="http://www.w3.org/2000/svg">
<path d="M3.74173 0.961883L11.4605 8.68199L19.1393 1.00188C19.309 0.821316 19.5133 0.676868 19.7401 0.577202C19.9669 0.477535 20.2114 0.424704 20.4591 0.421875C20.9895 0.421875 21.4981 0.632592 21.8731 1.00767C22.2481 1.38275 22.4588 1.89146 22.4588 2.4219C22.4635 2.66711 22.418 2.91069 22.3252 3.13768C22.2323 3.36467 22.0941 3.57029 21.9189 3.74192L14.1401 11.422L21.9189 19.2021C22.2485 19.5246 22.4418 19.9613 22.4588 20.4222C22.4588 20.9526 22.2481 21.4613 21.8731 21.8364C21.4981 22.2115 20.9895 22.4222 20.4591 22.4222C20.2043 22.4328 19.95 22.3902 19.7125 22.2973C19.475 22.2043 19.2593 22.0629 19.0794 21.8822L11.4605 14.1621L3.76173 21.8622C3.59277 22.0367 3.39091 22.1761 3.16782 22.2722C2.94473 22.3683 2.70482 22.4193 2.46193 22.4222C1.93158 22.4222 1.42295 22.2115 1.04794 21.8364C0.67292 21.4613 0.462239 20.9526 0.462239 20.4222C0.457577 20.177 0.503064 19.9334 0.595909 19.7064C0.688753 19.4794 0.826997 19.2738 1.00216 19.1021L8.78095 11.422L1.00216 3.64192C0.672577 3.31943 0.479316 2.88273 0.462239 2.4219C0.462239 1.89146 0.67292 1.38275 1.04794 1.00767C1.42295 0.632592 1.93158 0.421875 2.46193 0.421875C2.94186 0.427875 3.40178 0.621878 3.74173 0.961883Z" fill="white"/>
</svg>
