<svg width="31" height="31" viewBox="0 0 31 31" fill="none" xmlns="http://www.w3.org/2000/svg">
<path d="M5.65253 4.49933C8.35647 2.15583 11.8157 0.868069 15.3935 0.873061C23.6236 0.873061 30.2949 7.5458 30.2949 15.7776C30.2949 18.9612 29.2965 21.9122 27.5978 24.3327L22.8442 15.7776H27.3146C27.3148 13.44 26.628 11.1539 25.3397 9.20357C24.0513 7.25324 22.2183 5.72471 20.0684 4.80803C17.9185 3.89135 15.5466 3.62697 13.2477 4.04775C10.9488 4.46852 8.82421 5.5559 7.13819 7.17468L5.65253 4.49933ZM25.1346 27.0558C22.4306 29.3993 18.9714 30.687 15.3935 30.6821C7.16352 30.6821 0.492188 24.0093 0.492188 15.7776C0.492188 12.594 1.49058 9.64287 3.18933 7.22238L7.94287 15.7776H3.47246C3.47227 18.1151 4.15904 20.4012 5.44739 22.3515C6.73574 24.3019 8.56882 25.8304 10.7187 26.7471C12.8686 27.6638 15.2405 27.9281 17.5394 27.5074C19.8383 27.0866 21.9629 25.9992 23.6489 24.3804L25.1346 27.0558Z" fill="white"/>
</svg>
