<svg width="34" height="34" viewBox="0 0 34 34" fill="none" xmlns="http://www.w3.org/2000/svg">
<path d="M3.11647 11.8094H30.9323M3.11647 21.7457H30.9323M2.12305 16.7776C2.12305 18.7348 2.50848 20.673 3.25734 22.4813C4.00621 24.2896 5.10383 25.9326 6.48755 27.3166C7.87127 28.7006 9.51398 29.7985 11.3219 30.5475C13.1298 31.2966 15.0675 31.6821 17.0244 31.6821C18.9813 31.6821 20.919 31.2966 22.7269 30.5475C24.5348 29.7985 26.1775 28.7006 27.5613 27.3166C28.945 25.9326 30.0426 24.2896 30.7915 22.4813C31.5403 20.673 31.9258 18.7348 31.9258 16.7776C31.9258 12.8246 30.3558 9.03361 27.5613 6.23848C24.7667 3.44334 20.9765 1.87305 17.0244 1.87305C13.0723 1.87305 9.2821 3.44334 6.48755 6.23848C3.69301 9.03361 2.12305 12.8246 2.12305 16.7776Z" stroke="white" stroke-width="3" stroke-linecap="round" stroke-linejoin="round"/>
<path d="M16.1978 1.87305C13.4085 6.34376 11.9297 11.5078 11.9297 16.7776C11.9297 22.0474 13.4085 27.2114 16.1978 31.6821M17.8535 1.87305C20.6428 6.34376 22.1215 11.5078 22.1215 16.7776C22.1215 22.0474 20.6428 27.2114 17.8535 31.6821" stroke="white" stroke-width="3" stroke-linecap="round" stroke-linejoin="round"/>
</svg>
