<svg width="39" height="21" viewBox="0 0 39 21" fill="none" xmlns="http://www.w3.org/2000/svg">
<path d="M35.6325 0.841798C35.1127 0.841928 34.6007 0.965497 34.1411 1.20177C33.6815 1.43804 33.2882 1.77987 32.9953 2.19756C32.7025 2.61524 32.5189 3.09616 32.4606 3.59851C32.4023 4.10087 32.471 4.60948 32.6607 5.08015L25.942 11.6139C25.193 11.3272 24.3601 11.3272 23.6112 11.6139L18.8082 6.94316C18.9984 6.47238 19.0674 5.96355 19.0093 5.46092C18.9512 4.95828 18.7677 4.47706 18.4748 4.0591C18.1819 3.64114 17.7884 3.2991 17.3286 3.06272C16.8688 2.82633 16.3565 2.70277 15.8364 2.70277C15.3163 2.70277 14.804 2.82633 14.3442 3.06272C13.8844 3.2991 13.4909 3.64114 13.198 4.0591C12.9051 4.47706 12.7216 4.95828 12.6635 5.46092C12.6054 5.96355 12.6744 6.47238 12.8646 6.94316L4.8687 14.7189C4.18583 14.4584 3.43156 14.4345 2.7327 14.6512C2.03383 14.8679 1.43301 15.312 1.03126 15.9088C0.629504 16.5057 0.451316 17.2188 0.526657 17.9284C0.601998 18.6379 0.926273 19.3006 1.44496 19.805C1.96364 20.3094 2.6451 20.6248 3.37475 20.6981C4.1044 20.7713 4.83774 20.598 5.45146 20.2073C6.06519 19.8167 6.52187 19.2324 6.74471 18.5528C6.96755 17.8731 6.94297 17.1396 6.6751 16.4756L14.671 8.69982C15.42 8.98653 16.2528 8.98653 17.0018 8.69982L21.8048 13.3705C21.6146 13.8413 21.5455 14.3501 21.6036 14.8528C21.6617 15.3554 21.8452 15.8366 22.1382 16.2546C22.4311 16.6726 22.8246 17.0146 23.2844 17.251C23.7442 17.4874 24.2565 17.6109 24.7766 17.6109C25.2967 17.6109 25.8089 17.4874 26.2688 17.251C26.7286 17.0146 27.1221 16.6726 27.415 16.2546C27.7079 15.8366 27.8914 15.3554 27.9495 14.8528C28.0076 14.3501 27.9386 13.8413 27.7484 13.3705L34.4671 6.83681C34.9043 7.00384 35.374 7.075 35.8428 7.04523C36.3115 7.01545 36.7677 6.88546 37.1788 6.66453C37.59 6.4436 37.9459 6.13718 38.2213 5.76711C38.4967 5.39704 38.6847 4.97244 38.772 4.52359C38.8592 4.07474 38.8436 3.61269 38.7261 3.1704C38.6087 2.72811 38.3923 2.31647 38.0925 1.96484C37.7926 1.6132 37.4167 1.33024 36.9915 1.13611C36.5663 0.941993 36.1023 0.841498 35.6325 0.841798Z" fill="white"/>
</svg>
